# xmcd
#
# Track frame offsets: 
#        150
#        14620
#        33902
#        48331
#        76251
#        93547
#        112436
#        131395
#        150988
#        172652
#        200786
#        214028
#        230031
#
# Disc length: 3278 seconds
#
# Revision: 1
# Processed by: cddbd v1.5.2PL0 Copyright (c) Steve Scherf et al.
# Submitted via: ExactAudioCopy v1.0b3
#
DISCID=a90ccc0d
DTITLE=Nils von der Leyen Trio - Red Line
DYEAR=2011
DGENRE=Boogie Woogie
TTITLE0=Boogie in the Barrelhouse
TTITLE1=Red Devil Boogie
TTITLE2=Roll'em Pete
TTITLE3=In a Bluesy Mood
TTITLE4=Rush Hour
TTITLE5=Jump and Jive
TTITLE6=Honky Tonk Train Blues
TTITLE7=NBA Groove
TTITLE8=Boogie Woogie Stomp
TTITLE9=Reflection
TTITLE10=Back to the Roots
TTITLE11=Red Line Boogie
TTITLE12=Yancey Special
EXTD=
EXTT0=
EXTT1=
EXTT2=
EXTT3=
EXTT4=
EXTT5=
EXTT6=
EXTT7=
EXTT8=
EXTT9=
EXTT10=
EXTT11=
EXTT12=
PLAYORDER=
